<svg xmlns="http://www.w3.org/2000/svg" width="1280" height="720" viewBox="0 0 1280 720" font-family="'Zen Maru Gothic','Hiragino Maru Gothic ProN','BIZ UDPGothic','Noto Sans CJK JP','Noto Sans JP',sans-serif">
<rect width="1280" height="720" fill="#fff5ec"/>
<rect x="3" y="3" width="1274" height="714" fill="none" stroke="#f07f2a" stroke-width="6" stroke-dasharray="24 14"/>
<rect x="24" y="24" width="344" height="44" rx="22" fill="#f07f2a"/><text x="42" y="54" font-size="21" font-weight="700" fill="#3a322c">ダミー画像 · 差し替え予定</text>
<rect x="40" y="120" width="384" height="300" rx="12" fill="#2b2b2b"/>
<rect x="40" y="120" width="384" height="26" rx="12" fill="#1f1f1f"/>
<rect x="50" y="156" width="364" height="254" fill="#393939"/>
<line x1="78" y1="156" x2="78" y2="410" stroke="#424242" stroke-width="1"/>
<line x1="106" y1="156" x2="106" y2="410" stroke="#424242" stroke-width="1"/>
<line x1="134" y1="156" x2="134" y2="410" stroke="#424242" stroke-width="1"/>
<line x1="162" y1="156" x2="162" y2="410" stroke="#424242" stroke-width="1"/>
<line x1="190" y1="156" x2="190" y2="410" stroke="#424242" stroke-width="1"/>
<line x1="218" y1="156" x2="218" y2="410" stroke="#424242" stroke-width="1"/>
<line x1="246" y1="156" x2="246" y2="410" stroke="#424242" stroke-width="1"/>
<line x1="274" y1="156" x2="274" y2="410" stroke="#424242" stroke-width="1"/>
<line x1="302" y1="156" x2="302" y2="410" stroke="#424242" stroke-width="1"/>
<line x1="330" y1="156" x2="330" y2="410" stroke="#424242" stroke-width="1"/>
<line x1="358" y1="156" x2="358" y2="410" stroke="#424242" stroke-width="1"/>
<line x1="386" y1="156" x2="386" y2="410" stroke="#424242" stroke-width="1"/>
<line x1="50" y1="184" x2="414" y2="184" stroke="#424242" stroke-width="1"/>
<line x1="50" y1="212" x2="414" y2="212" stroke="#424242" stroke-width="1"/>
<line x1="50" y1="240" x2="414" y2="240" stroke="#424242" stroke-width="1"/>
<line x1="50" y1="268" x2="414" y2="268" stroke="#424242" stroke-width="1"/>
<line x1="50" y1="296" x2="414" y2="296" stroke="#424242" stroke-width="1"/>
<line x1="50" y1="324" x2="414" y2="324" stroke="#424242" stroke-width="1"/>
<line x1="50" y1="352" x2="414" y2="352" stroke="#424242" stroke-width="1"/>
<line x1="50" y1="380" x2="414" y2="380" stroke="#424242" stroke-width="1"/>
<line x1="50" y1="408" x2="414" y2="408" stroke="#424242" stroke-width="1"/>
<text x="232.0" y="470" text-anchor="middle" font-size="26" font-weight="700" fill="#3a322c">① .unitypackage をドラッグ</text>
<rect x="448" y="120" width="384" height="300" rx="12" fill="#2b2b2b"/>
<rect x="448" y="120" width="384" height="26" rx="12" fill="#1f1f1f"/>
<rect x="458" y="156" width="364" height="254" fill="#393939"/>
<line x1="486" y1="156" x2="486" y2="410" stroke="#424242" stroke-width="1"/>
<line x1="514" y1="156" x2="514" y2="410" stroke="#424242" stroke-width="1"/>
<line x1="542" y1="156" x2="542" y2="410" stroke="#424242" stroke-width="1"/>
<line x1="570" y1="156" x2="570" y2="410" stroke="#424242" stroke-width="1"/>
<line x1="598" y1="156" x2="598" y2="410" stroke="#424242" stroke-width="1"/>
<line x1="626" y1="156" x2="626" y2="410" stroke="#424242" stroke-width="1"/>
<line x1="654" y1="156" x2="654" y2="410" stroke="#424242" stroke-width="1"/>
<line x1="682" y1="156" x2="682" y2="410" stroke="#424242" stroke-width="1"/>
<line x1="710" y1="156" x2="710" y2="410" stroke="#424242" stroke-width="1"/>
<line x1="738" y1="156" x2="738" y2="410" stroke="#424242" stroke-width="1"/>
<line x1="766" y1="156" x2="766" y2="410" stroke="#424242" stroke-width="1"/>
<line x1="794" y1="156" x2="794" y2="410" stroke="#424242" stroke-width="1"/>
<line x1="458" y1="184" x2="822" y2="184" stroke="#424242" stroke-width="1"/>
<line x1="458" y1="212" x2="822" y2="212" stroke="#424242" stroke-width="1"/>
<line x1="458" y1="240" x2="822" y2="240" stroke="#424242" stroke-width="1"/>
<line x1="458" y1="268" x2="822" y2="268" stroke="#424242" stroke-width="1"/>
<line x1="458" y1="296" x2="822" y2="296" stroke="#424242" stroke-width="1"/>
<line x1="458" y1="324" x2="822" y2="324" stroke="#424242" stroke-width="1"/>
<line x1="458" y1="352" x2="822" y2="352" stroke="#424242" stroke-width="1"/>
<line x1="458" y1="380" x2="822" y2="380" stroke="#424242" stroke-width="1"/>
<line x1="458" y1="408" x2="822" y2="408" stroke="#424242" stroke-width="1"/>
<text x="640.0" y="470" text-anchor="middle" font-size="26" font-weight="700" fill="#3a322c">② ポップアップで Import</text>
<rect x="856" y="120" width="384" height="300" rx="12" fill="#2b2b2b"/>
<rect x="856" y="120" width="384" height="26" rx="12" fill="#1f1f1f"/>
<rect x="866" y="156" width="364" height="254" fill="#393939"/>
<line x1="894" y1="156" x2="894" y2="410" stroke="#424242" stroke-width="1"/>
<line x1="922" y1="156" x2="922" y2="410" stroke="#424242" stroke-width="1"/>
<line x1="950" y1="156" x2="950" y2="410" stroke="#424242" stroke-width="1"/>
<line x1="978" y1="156" x2="978" y2="410" stroke="#424242" stroke-width="1"/>
<line x1="1006" y1="156" x2="1006" y2="410" stroke="#424242" stroke-width="1"/>
<line x1="1034" y1="156" x2="1034" y2="410" stroke="#424242" stroke-width="1"/>
<line x1="1062" y1="156" x2="1062" y2="410" stroke="#424242" stroke-width="1"/>
<line x1="1090" y1="156" x2="1090" y2="410" stroke="#424242" stroke-width="1"/>
<line x1="1118" y1="156" x2="1118" y2="410" stroke="#424242" stroke-width="1"/>
<line x1="1146" y1="156" x2="1146" y2="410" stroke="#424242" stroke-width="1"/>
<line x1="1174" y1="156" x2="1174" y2="410" stroke="#424242" stroke-width="1"/>
<line x1="1202" y1="156" x2="1202" y2="410" stroke="#424242" stroke-width="1"/>
<line x1="866" y1="184" x2="1230" y2="184" stroke="#424242" stroke-width="1"/>
<line x1="866" y1="212" x2="1230" y2="212" stroke="#424242" stroke-width="1"/>
<line x1="866" y1="240" x2="1230" y2="240" stroke="#424242" stroke-width="1"/>
<line x1="866" y1="268" x2="1230" y2="268" stroke="#424242" stroke-width="1"/>
<line x1="866" y1="296" x2="1230" y2="296" stroke="#424242" stroke-width="1"/>
<line x1="866" y1="324" x2="1230" y2="324" stroke="#424242" stroke-width="1"/>
<line x1="866" y1="352" x2="1230" y2="352" stroke="#424242" stroke-width="1"/>
<line x1="866" y1="380" x2="1230" y2="380" stroke="#424242" stroke-width="1"/>
<line x1="866" y1="408" x2="1230" y2="408" stroke="#424242" stroke-width="1"/>
<text x="1048.0" y="470" text-anchor="middle" font-size="26" font-weight="700" fill="#3a322c">③ 読み込み完了</text>
<path d="M190,190 h60 l24,24 v84 h-84 z" fill="#fff" stroke="#f07f2a" stroke-width="4"/>
<rect x="162" y="316" width="140" height="28" rx="14" fill="#f07f2a"/>
<text x="232" y="336" text-anchor="middle" font-size="16" font-weight="700" fill="#3a322c">.unitypackage</text>
<path d="M255,240 l0,46 l12,-11 l10,22 l8,-4 l-10,-21 l16,-1 z" fill="#fff" stroke="#222" stroke-width="2"/>
<path d="M70,370 q50,-110 110,-130" fill="none" stroke="#ff9a4a" stroke-width="4" stroke-dasharray="10 8"/>
<rect x="540" y="170" width="200" height="220" rx="8" fill="#424242" stroke="#6a6a6a"/>
<rect x="556" y="190" width="168" height="16" rx="4" fill="#5a5a5a"/>
<rect x="556" y="220" width="128" height="16" rx="4" fill="#5a5a5a"/>
<rect x="556" y="250" width="168" height="16" rx="4" fill="#5a5a5a"/>
<rect x="556" y="280" width="128" height="16" rx="4" fill="#5a5a5a"/>
<rect x="556" y="310" width="168" height="16" rx="4" fill="#5a5a5a"/>
<rect x="560" y="348" width="160" height="30" rx="6" fill="#f07f2a"/>
<text x="640" y="369" text-anchor="middle" font-size="17" font-weight="700" fill="#3a322c">Import</text>
<polyline points="1030.3,217.6 1005.5,258.4 987.5,296.5" fill="none" stroke="#6b5a4e" stroke-width="10.2" stroke-linecap="round" stroke-linejoin="round"/>
<polyline points="1030.3,217.6 1005.5,258.4 987.5,296.5" fill="none" stroke="#fafafa" stroke-width="8.5" stroke-linecap="round" stroke-linejoin="round"/>
<circle cx="984.8" cy="301.9" r="4.1" fill="#f6dcc8" stroke="#6b5a4e" stroke-width="0.9"/>
<polyline points="1065.7,217.6 1090.5,258.4 1108.5,296.5" fill="none" stroke="#6b5a4e" stroke-width="10.2" stroke-linecap="round" stroke-linejoin="round"/>
<polyline points="1065.7,217.6 1090.5,258.4 1108.5,296.5" fill="none" stroke="#fafafa" stroke-width="8.5" stroke-linecap="round" stroke-linejoin="round"/>
<circle cx="1111.2" cy="301.9" r="4.1" fill="#f6dcc8" stroke="#6b5a4e" stroke-width="0.9"/>
<rect x="1036.4" y="329.8" width="8.8" height="69.7" rx="3.4" fill="#2e2a2a" stroke="#6b5a4e" stroke-width="0.9"/>
<ellipse cx="1040.9" cy="401.9" rx="6.8" ry="3.7" fill="#1d1d1d" stroke="#6b5a4e" stroke-width="0.9"/>
<rect x="1050.7" y="329.8" width="8.8" height="69.7" rx="3.4" fill="#2e2a2a" stroke="#6b5a4e" stroke-width="0.9"/>
<ellipse cx="1055.1" cy="401.9" rx="6.8" ry="3.7" fill="#1d1d1d" stroke="#6b5a4e" stroke-width="0.9"/>
<polygon points="1029.0,211.5 1067.0,211.5 1064.3,272.0 1031.7,272.0" fill="#fafafa" stroke="#6b5a4e" stroke-width="0.9"/>
<polygon points="1030.3,269.3 1065.7,269.3 1073.2,340.0 1022.8,340.0" fill="#b9ab9c" stroke="#6b5a4e" stroke-width="0.9"/>
<line x1="1037.1" y1="272.0" x2="1034.4" y2="339.3" stroke="#8f8274" stroke-width="0.5"/>
<line x1="1042.6" y1="272.0" x2="1041.2" y2="339.3" stroke="#8f8274" stroke-width="0.5"/>
<line x1="1048.0" y1="272.0" x2="1048.0" y2="339.3" stroke="#8f8274" stroke-width="0.5"/>
<line x1="1053.4" y1="272.0" x2="1054.8" y2="339.3" stroke="#8f8274" stroke-width="0.5"/>
<line x1="1058.9" y1="272.0" x2="1061.6" y2="339.3" stroke="#8f8274" stroke-width="0.5"/>
<line x1="1026.6" y1="289.0" x2="1069.4" y2="289.0" stroke="#8f8274" stroke-width="0.5"/>
<line x1="1024.2" y1="312.8" x2="1071.8" y2="312.8" stroke="#8f8274" stroke-width="0.5"/>
<rect x="1030.3" y="267.2" width="35.4" height="5.4" fill="#9a5a36" stroke="#6b5a4e" stroke-width="0.9"/>
<rect x="1043.9" y="204.0" width="8.2" height="8.8" fill="#f6dcc8" stroke="#6b5a4e" stroke-width="0.9"/>
<path d="M1029.0,193.8 Q1027.6,167.3 1048.0,166.6 Q1068.4,167.3 1067.0,193.8 L1067.7,208.1 L1059.6,208.1 L1058.2,190.4 L1037.8,190.4 L1036.4,208.1 L1028.3,208.1 Z" fill="#5a3b2a" stroke="#6b5a4e" stroke-width="0.9"/>
<ellipse cx="1048.0" cy="192.4" rx="13.6" ry="15.6" fill="#f6dcc8" stroke="#6b5a4e" stroke-width="0.9"/>
<path d="M1033.0,187.0 Q1048.0,169.3 1063.0,187.0 Q1061.6,173.4 1048.0,172.0 Q1034.4,173.4 1033.0,187.0 Z" fill="#5a3b2a" stroke="#6b5a4e" stroke-width="0.9"/>
<ellipse cx="1042.6" cy="193.8" rx="2.0" ry="3.1" fill="#4a3226"/>
<ellipse cx="1053.4" cy="193.8" rx="2.0" ry="3.1" fill="#4a3226"/>
<path d="M1044.6,216.2 L1048.0,221.0 L1051.4,216.2" fill="none" stroke="#6e1f2b" stroke-width="1.4"/>
<rect x="40" y="585" width="1200" height="129" rx="16" fill="#fffaf5" fill-opacity=".95" stroke="#f07f2a" stroke-width="2"/>
<text x="60" y="622" font-size="21" font-weight="700" fill="#ad5410">必要な素材：動画（MP4 / WebM）か GIF、10 秒前後</text>
<text x="60" y="655" font-size="19" fill="#3a322c">ファイルマネージャーからビューポートへドラッグ → ポップアップで Import → 色の付いたアバターが出るまでを 1 本で</text>
<text x="60" y="688" font-size="19" fill="#3a322c">カーソルの動きが見えるように。1280×720、音声なし・ループ再生を想定</text>
</svg>
